# xmcd
#
# Track frame offsets:
#	150
#	14533
#	28272
#	43084
#	58729
#	72086
#	88187
#	101522
#	117066
#	131140
#	146681
#	163832
#	176597
#	188572
#	202779
#	218701
#	233594
#	244931
#	256751
#	265846
#	280446
#	297994
#
# Disc length: 4091 seconds
#
# Revision: 0
# Processed by: cddbd v1.5.2PL0 Copyright (c) Steve Scherf et al.
# Submitted via: audiograbber 1.83.01
#
DISCID=480ff916
DTITLE=Anne Kristin - I´ve Got Dreams Anne Kristin
DYEAR=1900
DGENRE=
TTITLE0=I Remember Patsy Cline
TTITLE1=Bang Belt Buckles
TTITLE2=Autum Sunday
TTITLE3=Lately Every Song On The Radio Makes Me Blue
TTITLE4=What Da Ya Mean
TTITLE5=The Fire That Burns Forever
TTITLE6=In Care Of The Blues
TTITLE7=You Won´t Be Mine
TTITLE8=Wild Mountain Callin´ 
TTITLE9=Can´t Push A River
TTITLE10=My Goodbye
TTITLE11=He Was The Only One
TTITLE12=I´ve Got Dreams
TTITLE13=Hold Me In Your Dreams
TTITLE14=The Highway Make Me Free
TTITLE15=Lay Down Beside Me
TTITLE16=Forever On My Mind
TTITLE17=My Own Sweet Dad
TTITLE18=Friends Forever
TTITLE19=It´s You And Me Forever
TTITLE20=Still Got Your Lovin´
TTITLE21=This Train
EXTD=
EXTT0=
EXTT1=
EXTT2=
EXTT3=
EXTT4=
EXTT5=
EXTT6=
EXTT7=
EXTT8=
EXTT9=
EXTT10=
EXTT11=
EXTT12=
EXTT13=
EXTT14=
EXTT15=
EXTT16=
EXTT17=
EXTT18=
EXTT19=
EXTT20=
EXTT21=
PLAYORDER=
